<svg width="22" height="24" viewBox="0 0 22 24" fill="none" xmlns="http://www.w3.org/2000/svg">
<circle cx="8.49994" cy="11.5" r="7.5" stroke="black" stroke-width="2"/>
<mask id="path-2-inside-1_3_6" fill="white">
<path d="M18.3223 7.96751C18.0045 6.14227 17.0696 4.48149 15.6741 3.26293C14.2785 2.04436 12.5069 1.3419 10.6555 1.27303L10.6034 2.67275C12.1341 2.72969 13.5989 3.31049 14.7528 4.31801C15.9067 5.32552 16.6796 6.69867 16.9424 8.20778L18.3223 7.96751Z"/>
</mask>
<path d="M18.3223 7.96751C18.0045 6.14227 17.0696 4.48149 15.6741 3.26293C14.2785 2.04436 12.5069 1.3419 10.6555 1.27303L10.6034 2.67275C12.1341 2.72969 13.5989 3.31049 14.7528 4.31801C15.9067 5.32552 16.6796 6.69867 16.9424 8.20778L18.3223 7.96751Z" stroke="black" stroke-width="2" mask="url(#path-2-inside-1_3_6)"/>
<line x1="14.707" y1="17.2928" x2="20.707" y2="23.2928" stroke="black" stroke-width="2"/>
<path d="M8.20795 8.20796L7.26068 8.73042L7.12885 11.1523L9.64838 11.2304L9.71185 9.19917L8.80853 8.66206L11.6992 8.4814L10.6005 9.37984L10.7812 14.2919L11.7919 14.9609L8.32025 14.9804L9.55072 14.1601L9.62885 11.8603L7.08978 11.8115L6.98236 13.8183L7.70013 14.541H5.3222L6.16205 13.8623L5.86908 8.79878L4.80951 8.15913L8.20795 8.20796Z" fill="black"/>
</svg>
